<mxfile host="app.diagrams.net" modified="2021-08-22T15:27:59.724Z" agent="5.0 (Macintosh; Intel Mac OS X 10_15_7) AppleWebKit/605.1.15 (KHTML, like Gecko) Version/14.1.1 Safari/605.1.15" etag="rkxbGKzieaFbimcZisJo" version="14.9.8" type="github">
  <diagram id="ZLGAQ76vmEtR0zyrEfHl" name="Page-1">
    <mxGraphModel dx="828" dy="613" grid="1" gridSize="10" guides="1" tooltips="1" connect="1" arrows="1" fold="1" page="1" pageScale="1" pageWidth="827" pageHeight="1169" math="0" shadow="0">
      <root>
        <mxCell id="0" />
        <mxCell id="1" parent="0" />
        <mxCell id="cHyLrr4dSaUQWcA4tl7r-8" value="" style="edgeStyle=none;rounded=0;orthogonalLoop=1;jettySize=auto;html=1;" edge="1" parent="1" source="cHyLrr4dSaUQWcA4tl7r-1" target="cHyLrr4dSaUQWcA4tl7r-2">
          <mxGeometry relative="1" as="geometry" />
        </mxCell>
        <mxCell id="cHyLrr4dSaUQWcA4tl7r-1" value="Начало" style="rounded=1;whiteSpace=wrap;html=1;" vertex="1" parent="1">
          <mxGeometry x="90" y="70" width="120" height="60" as="geometry" />
        </mxCell>
        <mxCell id="cHyLrr4dSaUQWcA4tl7r-9" value="" style="edgeStyle=none;rounded=0;orthogonalLoop=1;jettySize=auto;html=1;" edge="1" parent="1" source="cHyLrr4dSaUQWcA4tl7r-2" target="cHyLrr4dSaUQWcA4tl7r-3">
          <mxGeometry relative="1" as="geometry" />
        </mxCell>
        <mxCell id="cHyLrr4dSaUQWcA4tl7r-2" value="X" style="shape=parallelogram;perimeter=parallelogramPerimeter;whiteSpace=wrap;html=1;fixedSize=1;" vertex="1" parent="1">
          <mxGeometry x="90" y="160" width="120" height="60" as="geometry" />
        </mxCell>
        <mxCell id="cHyLrr4dSaUQWcA4tl7r-10" value="" style="edgeStyle=none;rounded=0;orthogonalLoop=1;jettySize=auto;html=1;" edge="1" parent="1" source="cHyLrr4dSaUQWcA4tl7r-3" target="cHyLrr4dSaUQWcA4tl7r-4">
          <mxGeometry relative="1" as="geometry" />
        </mxCell>
        <mxCell id="cHyLrr4dSaUQWcA4tl7r-3" value="SUM, &amp;nbsp;PROD" style="rounded=0;whiteSpace=wrap;html=1;" vertex="1" parent="1">
          <mxGeometry x="90" y="260" width="120" height="60" as="geometry" />
        </mxCell>
        <mxCell id="cHyLrr4dSaUQWcA4tl7r-11" value="" style="edgeStyle=none;rounded=0;orthogonalLoop=1;jettySize=auto;html=1;" edge="1" parent="1" source="cHyLrr4dSaUQWcA4tl7r-4" target="cHyLrr4dSaUQWcA4tl7r-5">
          <mxGeometry relative="1" as="geometry" />
        </mxCell>
        <mxCell id="cHyLrr4dSaUQWcA4tl7r-16" style="edgeStyle=none;rounded=0;orthogonalLoop=1;jettySize=auto;html=1;exitX=1;exitY=1;exitDx=0;exitDy=0;" edge="1" parent="1" source="cHyLrr4dSaUQWcA4tl7r-4">
          <mxGeometry relative="1" as="geometry">
            <mxPoint x="220" y="430" as="targetPoint" />
          </mxGeometry>
        </mxCell>
        <mxCell id="cHyLrr4dSaUQWcA4tl7r-4" value="SUM = &amp;nbsp;X/100*&lt;br&gt;(X%100)/10 + X%10" style="rounded=0;whiteSpace=wrap;html=1;" vertex="1" parent="1">
          <mxGeometry x="90" y="360" width="120" height="60" as="geometry" />
        </mxCell>
        <mxCell id="cHyLrr4dSaUQWcA4tl7r-13" value="" style="edgeStyle=none;rounded=0;orthogonalLoop=1;jettySize=auto;html=1;" edge="1" parent="1" source="cHyLrr4dSaUQWcA4tl7r-5" target="cHyLrr4dSaUQWcA4tl7r-12">
          <mxGeometry relative="1" as="geometry" />
        </mxCell>
        <mxCell id="cHyLrr4dSaUQWcA4tl7r-5" value="PROD = x/100*&lt;br&gt;(x%100)/10 * X%10" style="rounded=0;whiteSpace=wrap;html=1;" vertex="1" parent="1">
          <mxGeometry x="90" y="460" width="120" height="60" as="geometry" />
        </mxCell>
        <mxCell id="cHyLrr4dSaUQWcA4tl7r-15" value="" style="edgeStyle=none;rounded=0;orthogonalLoop=1;jettySize=auto;html=1;" edge="1" parent="1" source="cHyLrr4dSaUQWcA4tl7r-12" target="cHyLrr4dSaUQWcA4tl7r-14">
          <mxGeometry relative="1" as="geometry" />
        </mxCell>
        <mxCell id="cHyLrr4dSaUQWcA4tl7r-12" value="SUM, PROD" style="shape=parallelogram;perimeter=parallelogramPerimeter;whiteSpace=wrap;html=1;fixedSize=1;" vertex="1" parent="1">
          <mxGeometry x="90" y="555" width="120" height="60" as="geometry" />
        </mxCell>
        <mxCell id="cHyLrr4dSaUQWcA4tl7r-14" value="" style="rounded=1;whiteSpace=wrap;html=1;" vertex="1" parent="1">
          <mxGeometry x="90" y="660" width="120" height="80" as="geometry" />
        </mxCell>
        <mxCell id="cHyLrr4dSaUQWcA4tl7r-17" value="1" style="text;html=1;align=center;verticalAlign=middle;resizable=0;points=[];autosize=1;strokeColor=none;" vertex="1" parent="1">
          <mxGeometry x="30" y="100" width="20" height="20" as="geometry" />
        </mxCell>
        <mxCell id="cHyLrr4dSaUQWcA4tl7r-18" value="2" style="text;html=1;align=center;verticalAlign=middle;resizable=0;points=[];autosize=1;strokeColor=none;" vertex="1" parent="1">
          <mxGeometry x="300" y="100" width="20" height="20" as="geometry" />
        </mxCell>
        <mxCell id="cHyLrr4dSaUQWcA4tl7r-30" value="" style="edgeStyle=none;rounded=0;orthogonalLoop=1;jettySize=auto;html=1;" edge="1" parent="1" source="cHyLrr4dSaUQWcA4tl7r-19" target="cHyLrr4dSaUQWcA4tl7r-22">
          <mxGeometry relative="1" as="geometry" />
        </mxCell>
        <mxCell id="cHyLrr4dSaUQWcA4tl7r-19" value="Начало" style="rounded=1;whiteSpace=wrap;html=1;" vertex="1" parent="1">
          <mxGeometry x="330" y="70" width="120" height="60" as="geometry" />
        </mxCell>
        <mxCell id="cHyLrr4dSaUQWcA4tl7r-31" value="" style="edgeStyle=none;rounded=0;orthogonalLoop=1;jettySize=auto;html=1;" edge="1" parent="1" source="cHyLrr4dSaUQWcA4tl7r-22" target="cHyLrr4dSaUQWcA4tl7r-23">
          <mxGeometry relative="1" as="geometry" />
        </mxCell>
        <mxCell id="cHyLrr4dSaUQWcA4tl7r-22" value="a=5, b=6" style="whiteSpace=wrap;html=1;" vertex="1" parent="1">
          <mxGeometry x="330" y="160" width="120" height="60" as="geometry" />
        </mxCell>
        <mxCell id="cHyLrr4dSaUQWcA4tl7r-32" value="" style="edgeStyle=none;rounded=0;orthogonalLoop=1;jettySize=auto;html=1;" edge="1" parent="1" source="cHyLrr4dSaUQWcA4tl7r-23" target="cHyLrr4dSaUQWcA4tl7r-24">
          <mxGeometry relative="1" as="geometry" />
        </mxCell>
        <mxCell id="cHyLrr4dSaUQWcA4tl7r-23" value="res_1= a | &amp;nbsp;b" style="whiteSpace=wrap;html=1;" vertex="1" parent="1">
          <mxGeometry x="330" y="250" width="120" height="60" as="geometry" />
        </mxCell>
        <mxCell id="cHyLrr4dSaUQWcA4tl7r-33" value="" style="edgeStyle=none;rounded=0;orthogonalLoop=1;jettySize=auto;html=1;" edge="1" parent="1" source="cHyLrr4dSaUQWcA4tl7r-24" target="cHyLrr4dSaUQWcA4tl7r-25">
          <mxGeometry relative="1" as="geometry" />
        </mxCell>
        <mxCell id="cHyLrr4dSaUQWcA4tl7r-24" value="&amp;nbsp;res_2 = a &amp;gt;&amp;gt; 2&lt;br&gt;&amp;nbsp;res_3 = a &amp;lt;&amp;lt; 2" style="whiteSpace=wrap;html=1;" vertex="1" parent="1">
          <mxGeometry x="330" y="350" width="120" height="60" as="geometry" />
        </mxCell>
        <mxCell id="cHyLrr4dSaUQWcA4tl7r-34" value="" style="edgeStyle=none;rounded=0;orthogonalLoop=1;jettySize=auto;html=1;" edge="1" parent="1" source="cHyLrr4dSaUQWcA4tl7r-25" target="cHyLrr4dSaUQWcA4tl7r-26">
          <mxGeometry relative="1" as="geometry" />
        </mxCell>
        <mxCell id="cHyLrr4dSaUQWcA4tl7r-25" value="res_4 = a &amp;amp; b" style="whiteSpace=wrap;html=1;" vertex="1" parent="1">
          <mxGeometry x="330" y="450" width="120" height="60" as="geometry" />
        </mxCell>
        <mxCell id="cHyLrr4dSaUQWcA4tl7r-35" value="" style="edgeStyle=none;rounded=0;orthogonalLoop=1;jettySize=auto;html=1;" edge="1" parent="1" source="cHyLrr4dSaUQWcA4tl7r-26" target="cHyLrr4dSaUQWcA4tl7r-27">
          <mxGeometry relative="1" as="geometry" />
        </mxCell>
        <mxCell id="cHyLrr4dSaUQWcA4tl7r-26" value="res_1, res_2, &amp;nbsp;res_3, res_4" style="whiteSpace=wrap;html=1;" vertex="1" parent="1">
          <mxGeometry x="330" y="540" width="120" height="60" as="geometry" />
        </mxCell>
        <mxCell id="cHyLrr4dSaUQWcA4tl7r-27" value="" style="rounded=1;whiteSpace=wrap;html=1;" vertex="1" parent="1">
          <mxGeometry x="325" y="660" width="130" height="70" as="geometry" />
        </mxCell>
        <mxCell id="cHyLrr4dSaUQWcA4tl7r-36" value="3" style="text;html=1;align=center;verticalAlign=middle;resizable=0;points=[];autosize=1;strokeColor=none;" vertex="1" parent="1">
          <mxGeometry x="500" y="100" width="20" height="20" as="geometry" />
        </mxCell>
        <mxCell id="cHyLrr4dSaUQWcA4tl7r-52" value="" style="edgeStyle=none;rounded=0;orthogonalLoop=1;jettySize=auto;html=1;" edge="1" parent="1" source="cHyLrr4dSaUQWcA4tl7r-38" target="cHyLrr4dSaUQWcA4tl7r-39">
          <mxGeometry relative="1" as="geometry" />
        </mxCell>
        <mxCell id="cHyLrr4dSaUQWcA4tl7r-38" value="Начало" style="rounded=1;whiteSpace=wrap;html=1;" vertex="1" parent="1">
          <mxGeometry x="580" y="70" width="120" height="60" as="geometry" />
        </mxCell>
        <mxCell id="cHyLrr4dSaUQWcA4tl7r-51" value="" style="edgeStyle=none;rounded=0;orthogonalLoop=1;jettySize=auto;html=1;" edge="1" parent="1" source="cHyLrr4dSaUQWcA4tl7r-39" target="cHyLrr4dSaUQWcA4tl7r-40">
          <mxGeometry relative="1" as="geometry" />
        </mxCell>
        <mxCell id="cHyLrr4dSaUQWcA4tl7r-39" value="x1, y1, x2, y2" style="shape=parallelogram;perimeter=parallelogramPerimeter;whiteSpace=wrap;html=1;fixedSize=1;" vertex="1" parent="1">
          <mxGeometry x="580" y="160" width="120" height="60" as="geometry" />
        </mxCell>
        <mxCell id="cHyLrr4dSaUQWcA4tl7r-46" value="" style="edgeStyle=none;rounded=0;orthogonalLoop=1;jettySize=auto;html=1;" edge="1" parent="1" source="cHyLrr4dSaUQWcA4tl7r-40">
          <mxGeometry relative="1" as="geometry">
            <mxPoint x="640" y="350" as="targetPoint" />
          </mxGeometry>
        </mxCell>
        <mxCell id="cHyLrr4dSaUQWcA4tl7r-40" value="k =(y2 - y1)/(x2 - x1)" style="whiteSpace=wrap;html=1;" vertex="1" parent="1">
          <mxGeometry x="580" y="250" width="120" height="60" as="geometry" />
        </mxCell>
        <mxCell id="cHyLrr4dSaUQWcA4tl7r-47" value="" style="edgeStyle=none;rounded=0;orthogonalLoop=1;jettySize=auto;html=1;" edge="1" parent="1" source="cHyLrr4dSaUQWcA4tl7r-41" target="cHyLrr4dSaUQWcA4tl7r-43">
          <mxGeometry relative="1" as="geometry" />
        </mxCell>
        <mxCell id="cHyLrr4dSaUQWcA4tl7r-41" value="b = &amp;nbsp;y1 - k * x1" style="whiteSpace=wrap;html=1;" vertex="1" parent="1">
          <mxGeometry x="580" y="360" width="120" height="60" as="geometry" />
        </mxCell>
        <mxCell id="cHyLrr4dSaUQWcA4tl7r-48" value="" style="edgeStyle=none;rounded=0;orthogonalLoop=1;jettySize=auto;html=1;" edge="1" parent="1" source="cHyLrr4dSaUQWcA4tl7r-43" target="cHyLrr4dSaUQWcA4tl7r-44">
          <mxGeometry relative="1" as="geometry" />
        </mxCell>
        <mxCell id="cHyLrr4dSaUQWcA4tl7r-43" value="f&#39;y = {k}x + {b}" style="whiteSpace=wrap;html=1;" vertex="1" parent="1">
          <mxGeometry x="580" y="460" width="120" height="60" as="geometry" />
        </mxCell>
        <mxCell id="cHyLrr4dSaUQWcA4tl7r-44" value="" style="rounded=1;whiteSpace=wrap;html=1;" vertex="1" parent="1">
          <mxGeometry x="580" y="554.5" width="120" height="60" as="geometry" />
        </mxCell>
        <mxCell id="cHyLrr4dSaUQWcA4tl7r-152" value="4" style="text;html=1;align=center;verticalAlign=middle;resizable=0;points=[];autosize=1;strokeColor=none;" vertex="1" parent="1">
          <mxGeometry x="780" y="100" width="20" height="20" as="geometry" />
        </mxCell>
        <mxCell id="cHyLrr4dSaUQWcA4tl7r-153" value="Начало" style="rounded=1;whiteSpace=wrap;html=1;" vertex="1" parent="1">
          <mxGeometry x="860" y="70" width="120" height="60" as="geometry" />
        </mxCell>
        <mxCell id="cHyLrr4dSaUQWcA4tl7r-167" value="" style="edgeStyle=none;rounded=0;orthogonalLoop=1;jettySize=auto;html=1;" edge="1" parent="1" source="cHyLrr4dSaUQWcA4tl7r-154" target="cHyLrr4dSaUQWcA4tl7r-155">
          <mxGeometry relative="1" as="geometry" />
        </mxCell>
        <mxCell id="cHyLrr4dSaUQWcA4tl7r-154" value="a, b" style="shape=parallelogram;perimeter=parallelogramPerimeter;whiteSpace=wrap;html=1;fixedSize=1;" vertex="1" parent="1">
          <mxGeometry x="860" y="160" width="120" height="60" as="geometry" />
        </mxCell>
        <mxCell id="cHyLrr4dSaUQWcA4tl7r-168" value="" style="edgeStyle=none;rounded=0;orthogonalLoop=1;jettySize=auto;html=1;" edge="1" parent="1" source="cHyLrr4dSaUQWcA4tl7r-155" target="cHyLrr4dSaUQWcA4tl7r-156">
          <mxGeometry relative="1" as="geometry" />
        </mxCell>
        <mxCell id="cHyLrr4dSaUQWcA4tl7r-155" value="result" style="whiteSpace=wrap;html=1;" vertex="1" parent="1">
          <mxGeometry x="860" y="250" width="120" height="60" as="geometry" />
        </mxCell>
        <mxCell id="cHyLrr4dSaUQWcA4tl7r-169" value="" style="edgeStyle=elbowEdgeStyle;rounded=0;orthogonalLoop=1;jettySize=auto;html=1;" edge="1" parent="1" source="cHyLrr4dSaUQWcA4tl7r-156" target="cHyLrr4dSaUQWcA4tl7r-157">
          <mxGeometry relative="1" as="geometry" />
        </mxCell>
        <mxCell id="cHyLrr4dSaUQWcA4tl7r-170" value="" style="edgeStyle=none;rounded=0;orthogonalLoop=1;jettySize=auto;html=1;" edge="1" parent="1" source="cHyLrr4dSaUQWcA4tl7r-156" target="cHyLrr4dSaUQWcA4tl7r-158">
          <mxGeometry relative="1" as="geometry" />
        </mxCell>
        <mxCell id="cHyLrr4dSaUQWcA4tl7r-156" value="type = &#39;int&#39;" style="rhombus;whiteSpace=wrap;html=1;" vertex="1" parent="1">
          <mxGeometry x="835" y="350" width="170" height="80" as="geometry" />
        </mxCell>
        <mxCell id="cHyLrr4dSaUQWcA4tl7r-173" value="" style="edgeStyle=elbowEdgeStyle;rounded=0;orthogonalLoop=1;jettySize=auto;html=1;" edge="1" parent="1" source="cHyLrr4dSaUQWcA4tl7r-157" target="cHyLrr4dSaUQWcA4tl7r-162">
          <mxGeometry relative="1" as="geometry" />
        </mxCell>
        <mxCell id="cHyLrr4dSaUQWcA4tl7r-176" value="" style="edgeStyle=elbowEdgeStyle;rounded=0;orthogonalLoop=1;jettySize=auto;html=1;" edge="1" parent="1" source="cHyLrr4dSaUQWcA4tl7r-157" target="cHyLrr4dSaUQWcA4tl7r-164">
          <mxGeometry relative="1" as="geometry">
            <Array as="points">
              <mxPoint x="910" y="570" />
            </Array>
          </mxGeometry>
        </mxCell>
        <mxCell id="cHyLrr4dSaUQWcA4tl7r-157" value="result = randint(alb)" style="whiteSpace=wrap;html=1;" vertex="1" parent="1">
          <mxGeometry x="860" y="490" width="120" height="60" as="geometry" />
        </mxCell>
        <mxCell id="cHyLrr4dSaUQWcA4tl7r-172" value="" style="edgeStyle=orthogonalEdgeStyle;rounded=0;orthogonalLoop=1;jettySize=auto;html=1;" edge="1" parent="1" source="cHyLrr4dSaUQWcA4tl7r-158" target="cHyLrr4dSaUQWcA4tl7r-163">
          <mxGeometry relative="1" as="geometry" />
        </mxCell>
        <mxCell id="cHyLrr4dSaUQWcA4tl7r-178" value="" style="edgeStyle=elbowEdgeStyle;rounded=0;orthogonalLoop=1;jettySize=auto;html=1;" edge="1" parent="1" source="cHyLrr4dSaUQWcA4tl7r-158" target="cHyLrr4dSaUQWcA4tl7r-162">
          <mxGeometry relative="1" as="geometry" />
        </mxCell>
        <mxCell id="cHyLrr4dSaUQWcA4tl7r-158" value="type = &#39;float&#39;" style="rhombus;whiteSpace=wrap;html=1;" vertex="1" parent="1">
          <mxGeometry x="1090" y="350" width="200" height="80" as="geometry" />
        </mxCell>
        <mxCell id="cHyLrr4dSaUQWcA4tl7r-177" value="" style="edgeStyle=elbowEdgeStyle;rounded=0;orthogonalLoop=1;jettySize=auto;html=1;" edge="1" parent="1" source="cHyLrr4dSaUQWcA4tl7r-162" target="cHyLrr4dSaUQWcA4tl7r-164">
          <mxGeometry relative="1" as="geometry" />
        </mxCell>
        <mxCell id="cHyLrr4dSaUQWcA4tl7r-162" value="result = uniform(a, b)" style="whiteSpace=wrap;html=1;" vertex="1" parent="1">
          <mxGeometry x="1130" y="490" width="120" height="60" as="geometry" />
        </mxCell>
        <mxCell id="cHyLrr4dSaUQWcA4tl7r-175" value="" style="edgeStyle=orthogonalEdgeStyle;rounded=0;orthogonalLoop=1;jettySize=auto;html=1;" edge="1" parent="1" source="cHyLrr4dSaUQWcA4tl7r-163" target="cHyLrr4dSaUQWcA4tl7r-164">
          <mxGeometry relative="1" as="geometry" />
        </mxCell>
        <mxCell id="cHyLrr4dSaUQWcA4tl7r-163" value="result = chr(randint(ord(a),&lt;br&gt;ord(b)))" style="whiteSpace=wrap;html=1;" vertex="1" parent="1">
          <mxGeometry x="1360" y="530" width="150" height="70" as="geometry" />
        </mxCell>
        <mxCell id="cHyLrr4dSaUQWcA4tl7r-179" value="" style="edgeStyle=elbowEdgeStyle;rounded=0;orthogonalLoop=1;jettySize=auto;html=1;" edge="1" parent="1" source="cHyLrr4dSaUQWcA4tl7r-164" target="cHyLrr4dSaUQWcA4tl7r-165">
          <mxGeometry relative="1" as="geometry" />
        </mxCell>
        <mxCell id="cHyLrr4dSaUQWcA4tl7r-164" value="result" style="shape=parallelogram;perimeter=parallelogramPerimeter;whiteSpace=wrap;html=1;fixedSize=1;" vertex="1" parent="1">
          <mxGeometry x="1130" y="585" width="120" height="60" as="geometry" />
        </mxCell>
        <mxCell id="cHyLrr4dSaUQWcA4tl7r-165" value="" style="rounded=1;whiteSpace=wrap;html=1;" vertex="1" parent="1">
          <mxGeometry x="1130" y="700" width="120" height="60" as="geometry" />
        </mxCell>
      </root>
    </mxGraphModel>
  </diagram>
</mxfile>
